<svg version="1.0" xmlns="http://www.w3.org/2000/svg"
 width="1302.000000pt" height="1330.000000pt" viewBox="0 0 1302.000000 1330.000000"
 preserveAspectRatio="xMidYMid meet">
<metadata>
Created by potrace 1.16, written by Peter Selinger 2001-2019
</metadata>
<g transform="translate(0.000000,1330.000000) scale(0.100000,-0.100000)"
fill="#000000" stroke="none">
<path d="M2965 10519 c-181 -18 -489 -84 -640 -136 -121 -42 -308 -134 -419
-206 -261 -172 -509 -439 -611 -660 -159 -344 -82 -751 210 -1114 162 -202
506 -435 806 -547 129 -47 339 -101 473 -121 174 -25 263 -79 357 -216 123
-181 530 -420 876 -515 58 -15 65 -15 87 0 35 22 44 77 20 115 -11 16 -74 70
-140 119 -128 96 -215 184 -290 292 -46 67 -61 119 -50 165 9 34 80 67 203 94
425 92 784 320 1070 680 96 122 161 240 199 367 26 83 28 102 28 269 0 155 -3
191 -22 260 -45 161 -129 304 -296 498 -267 310 -789 569 -1297 642 -129 19
-444 27 -564 14z"/>
<path d="M7013 7786 c-64 -54 -66 -105 -18 -777 39 -555 40 -589 23 -589 -14
0 -44 44 -70 100 -34 73 -209 513 -277 695 -89 238 -119 272 -201 230 -39 -20
-50 -43 -50 -107 0 -98 71 -362 155 -578 19 -47 54 -137 79 -201 24 -64 60
-167 79 -230 62 -205 61 -215 -30 -184 -94 32 -163 85 -314 241 -79 81 -173
178 -209 214 -36 37 -81 75 -99 84 -118 61 -147 -77 -47 -224 25 -36 90 -119
146 -185 161 -191 306 -398 380 -546 52 -102 76 -175 105 -319 34 -171 70
-289 140 -470 125 -322 139 -410 136 -860 -1 -301 9 -946 24 -1485 5 -163 33
-797 81 -1798 l6 -137 -1056 0 -1056 0 0 28 c0 46 39 611 60 877 28 336 46
507 75 710 13 94 38 305 55 470 39 378 59 505 113 732 l44 183 56 62 c117 134
160 171 462 405 178 137 264 192 424 269 75 36 139 71 143 77 4 7 8 27 8 45 0
64 -77 112 -178 112 -54 0 -73 -7 -233 -88 -252 -127 -301 -140 -374 -99 -91
51 -137 253 -105 457 17 107 31 161 134 510 149 510 174 651 123 698 -29 27
-71 28 -97 2 -32 -32 -69 -115 -125 -279 -48 -141 -186 -475 -247 -597 -32
-65 -53 -71 -45 -13 3 24 36 246 72 493 81 559 83 628 15 656 -58 24 -114 -19
-145 -111 -8 -24 -48 -233 -90 -464 -80 -448 -104 -565 -116 -565 -24 0 -75
313 -124 755 -9 82 -23 162 -31 177 -28 55 -103 48 -138 -12 -19 -32 -21 -50
-20 -230 1 -135 7 -246 22 -360 28 -215 46 -451 38 -484 -8 -34 -27 -33 -81 4
-70 48 -110 103 -233 319 -131 231 -161 271 -202 271 -37 0 -52 -21 -58 -79
-6 -64 12 -117 113 -331 94 -200 152 -353 185 -490 21 -86 23 -122 25 -370 1
-197 7 -305 18 -380 21 -131 21 -276 2 -405 -8 -55 -49 -228 -90 -385 -86
-327 -110 -462 -200 -1125 -89 -652 -117 -811 -187 -1085 -33 -129 -68 -263
-76 -297 l-16 -63 -603 0 -603 0 5 23 c45 193 69 390 120 992 46 540 54 612
110 900 74 390 79 402 262 702 28 45 71 130 97 190 26 59 63 132 83 162 52 80
192 220 335 337 141 116 171 148 188 198 17 51 -1 80 -43 72 -32 -7 -50 -18
-237 -147 -113 -77 -183 -113 -243 -123 -28 -5 -39 -3 -43 8 -8 20 65 154 173
321 112 173 205 361 207 415 1 49 -23 72 -69 68 -33 -3 -17 18 -236 -318 -135
-208 -186 -280 -200 -280 -10 0 7 69 97 395 42 154 83 309 91 345 23 107 3
160 -63 160 -57 0 -61 -10 -215 -500 -56 -179 -105 -332 -110 -340 -11 -20
-11 276 1 405 5 55 14 147 20 205 14 127 4 186 -34 196 -13 3 -34 1 -45 -5
-47 -26 -63 -87 -141 -542 -56 -333 -67 -374 -116 -475 -67 -136 -155 -201
-228 -170 -37 16 -100 82 -178 186 -73 98 -114 136 -163 149 -71 19 -135 -12
-135 -64 0 -8 30 -52 66 -96 86 -103 144 -201 259 -434 95 -194 145 -328 145
-391 0 -62 -60 -311 -110 -457 -26 -78 -80 -234 -120 -347 -94 -269 -106 -323
-195 -864 -74 -451 -135 -779 -156 -843 l-11 -33 -939 0 -939 0 0 -330 0 -330
6510 0 6510 0 0 330 0 330 -969 0 -969 0 -95 193 c-52 105 -102 215 -111 242
-23 73 -95 377 -171 720 -125 567 -131 588 -292 908 -68 137 -139 294 -158
350 -33 100 -39 133 -70 392 -9 72 -31 193 -50 269 -29 114 -35 158 -35 244 0
128 20 270 67 467 55 234 47 335 -27 335 -40 0 -54 -30 -125 -260 -60 -195
-84 -250 -139 -315 -28 -33 -36 -37 -49 -27 -20 17 -41 144 -72 424 -44 397
-80 518 -157 518 -41 0 -68 -32 -68 -80 0 -23 7 -100 15 -173 25 -223 46 -526
39 -563 l-7 -36 -22 40 c-13 22 -92 206 -176 409 -132 315 -160 374 -195 410
-46 49 -81 56 -115 22 -40 -40 -25 -99 140 -538 83 -223 151 -411 151 -420 0
-12 -6 -9 -24 9 -41 42 -278 380 -346 494 -89 148 -132 196 -175 196 -44 0
-59 -26 -52 -93 5 -58 76 -205 276 -572 72 -132 142 -269 156 -305 54 -142 69
-305 35 -374 -43 -85 -109 -90 -360 -27 -162 40 -178 43 -220 31 -54 -15 -120
-76 -120 -112 0 -45 21 -58 135 -84 144 -32 184 -46 345 -116 197 -87 414
-201 503 -264 75 -53 79 -58 131 -163 81 -160 143 -311 165 -398 23 -90 77
-378 121 -643 100 -597 132 -733 220 -943 l67 -162 -985 -3 c-542 -1 -987 -1
-988 1 -5 4 -61 449 -89 697 -36 332 -100 971 -140 1415 -39 427 -51 530 -96
835 -70 469 -80 565 -86 845 l-6 271 62 121 c73 143 138 237 352 509 231 294
285 351 486 513 97 78 113 104 94 153 -14 36 -53 64 -110 78 -41 10 -60 9
-112 -5 -71 -18 -122 -52 -251 -172 -228 -212 -341 -263 -438 -199 -50 33 -81
74 -124 166 -80 168 -101 343 -86 703 5 127 12 369 16 537 9 395 -4 480 -80
516 -30 15 -36 15 -64 0 -46 -24 -69 -110 -87 -321 -25 -286 -108 -825 -135
-876 l-13 -23 -8 22 c-5 12 -31 241 -59 509 -76 733 -82 770 -127 823 -33 39
-88 41 -130 6z"/>
</g>
</svg>
